<?xml version="1.0" standalone="no"?><!DOCTYPE svg PUBLIC "-//W3C//DTD SVG 1.1//EN" "http://www.w3.org/Graphics/SVG/1.1/DTD/svg11.dtd"><svg xmlns:xlink="http://www.w3.org/1999/xlink" version="1.1" class="highcharts-root" style="font-family: Roboto; font-size: 12px;" xmlns="http://www.w3.org/2000/svg" width="650" height="400" viewBox="0 0 650 400" aria-label="Interactive chart" aria-hidden="false"><desc aria-hidden="true">Created with Highcharts 10.3.1</desc><defs aria-hidden="true"><clipPath id="highcharts-rtas0hs-1413-"><rect x="0" y="0" width="630" height="338" fill="none"></rect></clipPath></defs><rect fill="#ffffff" class="highcharts-background" x="0" y="0" width="650" height="400" rx="0" ry="0" aria-hidden="true"></rect><rect fill="none" class="highcharts-plot-background" x="10" y="47" width="630" height="338" aria-hidden="true"></rect><g class="highcharts-pane-group" data-z-index="0" aria-hidden="true"></g><rect fill="none" class="highcharts-plot-border" data-z-index="1" x="10" y="47" width="630" height="338" aria-hidden="true"></rect><g class="highcharts-series-group" data-z-index="3" aria-hidden="false"><g class="highcharts-series highcharts-series-0 highcharts-pie-series" data-z-index="0.1" opacity="1" transform="translate(10,47) scale(1 1)" clip-path="none" aria-hidden="false"><path fill="#ef6cc6" d="M 314.9736854220826 39.80000267978724 A 129.2 129.2 0 0 1 361.575689505919 48.48715775051929 L 315 169 A 0 0 0 0 0 315 169 Z" transform="translate(0,0)" stroke="#ffffff" stroke-width="1" opacity="1" stroke-linejoin="round" class="highcharts-point highcharts-color-0" tabindex="-1" role="img" aria-label="1, 100." style="outline: none;"></path><path fill="#e95858" d="M 361.69617904024017 48.533793688678685 A 129.2 129.2 0 0 1 401.90753405832595 73.39811443333917 L 315 169 A 0 0 0 0 0 315 169 Z" transform="translate(0,0)" stroke="#ffffff" stroke-width="1" opacity="1" stroke-linejoin="round" class="highcharts-point highcharts-color-1" tabindex="-1" role="img" aria-label="2, 100." style="outline: none;"></path><path fill="#fe2dc0" d="M 402.00309247419557 73.48506975385173 A 129.2 129.2 0 0 1 430.597387687618 111.29485326421445 L 315 169 A 0 0 0 0 0 315 169 Z" transform="translate(0,0)" stroke="#ffffff" stroke-width="1" opacity="1" stroke-linejoin="round" class="highcharts-point highcharts-color-2" tabindex="-1" role="img" aria-label="3, 100." style="outline: none;"></path><path fill="#ca514c" d="M 430.65503502604724 111.41047948520679 A 129.2 129.2 0 0 1 443.6416771852512 157.00171299869749 L 315 169 A 0 0 0 0 0 315 169 Z" transform="translate(0,0)" stroke="#ffffff" stroke-width="1" opacity="1" stroke-linejoin="round" class="highcharts-point highcharts-color-3" tabindex="-1" role="img" aria-label="4, 100." style="outline: none;"></path><path fill="#f86cef" d="M 443.65361114941953 157.13036065358546 A 129.2 129.2 0 0 1 439.3101895024983 204.20819202760845 L 315 169 A 0 0 0 0 0 315 169 Z" transform="translate(0,0)" stroke="#ffffff" stroke-width="1" opacity="1" stroke-linejoin="round" class="highcharts-point highcharts-color-4" tabindex="-1" role="img" aria-label="5, 100." style="outline: none;"></path><path fill="#ec0eaa" d="M 439.27491916124916 204.33248459229804 A 129.2 129.2 0 0 1 418.16596344187843 246.77804309127993 L 315 169 A 0 0 0 0 0 315 169 Z" transform="translate(0,0)" stroke="#ffffff" stroke-width="1" opacity="1" stroke-linejoin="round" class="highcharts-point highcharts-color-5" tabindex="-1" role="img" aria-label="6, 100." style="outline: none;"></path><path fill="#df219e" d="M 418.0881338287727 246.8811701485092 A 129.2 129.2 0 0 1 383.1684951560541 278.75288728848557 L 315 169 A 0 0 0 0 0 315 169 Z" transform="translate(0,0)" stroke="#ffffff" stroke-width="1" opacity="1" stroke-linejoin="round" class="highcharts-point highcharts-color-6" tabindex="-1" role="img" aria-label="7, 100." style="outline: none;"></path><path fill="#fa0193" d="M 383.0587082028131 278.82100089584117 A 129.2 129.2 0 0 1 338.8670143965743 295.97639790052995 L 315 169 A 0 0 0 0 0 315 169 Z" transform="translate(0,0)" stroke="#ffffff" stroke-width="1" opacity="1" stroke-linejoin="round" class="highcharts-point highcharts-color-7" tabindex="-1" role="img" aria-label="8, 100." style="outline: none;"></path><path fill="#f746bc" d="M 338.7400260863303 296.000201422755 A 129.2 129.2 0 0 1 291.3352452037441 296.0142487299479 L 315 169 A 0 0 0 0 0 315 169 Z" transform="translate(0,0)" stroke="#ffffff" stroke-width="1" opacity="1" stroke-linejoin="round" class="highcharts-point highcharts-color-8" tabindex="-1" role="img" aria-label="9, 100." style="outline: none;"></path><path fill="#b30976" d="M 291.2082428085596 295.9905204719767 A 129.2 129.2 0 0 1 247.1162848515405 278.92925551300164 L 315 169 A 0 0 0 0 0 315 169 Z" transform="translate(0,0)" stroke="#ffffff" stroke-width="1" opacity="1" stroke-linejoin="round" class="highcharts-point highcharts-color-9" tabindex="-1" role="img" aria-label="10, 100." style="outline: none;"></path><path fill="#e25f8f" d="M 247.00638955620377 278.861316844544 A 129.2 129.2 0 0 1 211.95804082783982 246.94225202008775 L 315 169 A 0 0 0 0 0 315 169 Z" transform="translate(0,0)" stroke="#ffffff" stroke-width="1" opacity="1" stroke-linejoin="round" class="highcharts-point highcharts-color-0" tabindex="-1" role="img" aria-label="11, 100." style="outline: none;"></path><path fill="#c16295" d="M 211.8801501097854 246.8391711069665 A 129.2 129.2 0 0 1 190.78151083784098 204.53036659352924 L 315 169 A 0 0 0 0 0 315 169 Z" transform="translate(0,0)" stroke="#ffffff" stroke-width="1" opacity="1" stroke-linejoin="round" class="highcharts-point highcharts-color-1" tabindex="-1" role="img" aria-label="12, 100." style="outline: none;"></path><path fill="#d35ab6" d="M 190.74604258640858 204.40613035988835 A 129.2 129.2 0 0 1 186.3393768606598 157.20660975814533 L 315 169 A 0 0 0 0 0 315 169 Z" transform="translate(0,0)" stroke="#ffffff" stroke-width="1" opacity="1" stroke-linejoin="round" class="highcharts-point highcharts-color-2" tabindex="-1" role="img" aria-label="13, 100." style="outline: none;"></path><path fill="#9a1a8f" d="M 186.3512345792423 157.07795505314405 A 129.2 129.2 0 0 1 199.31085465112028 111.47903296670182 L 315 169 A 0 0 0 0 0 315 169 Z" transform="translate(0,0)" stroke="#ffffff" stroke-width="1" opacity="1" stroke-linejoin="round" class="highcharts-point highcharts-color-3" tabindex="-1" role="img" aria-label="14, 100." style="outline: none;"></path><path fill="#f087ec" d="M 199.3684334531346 111.3633726011156 A 129.2 129.2 0 0 1 227.844895737206 73.62375662177973 L 315 169 A 0 0 0 0 0 315 169 Z" transform="translate(0,0)" stroke="#ffffff" stroke-width="1" opacity="1" stroke-linejoin="round" class="highcharts-point highcharts-color-4" tabindex="-1" role="img" aria-label="15, 100." style="outline: none;"></path><path fill="#af4597" d="M 227.94031554223668 73.5366492201605 A 129.2 129.2 0 0 1 268.23243443506254 48.56148950136725 L 315 169 A 0 0 0 0 0 315 169 Z" transform="translate(0,0)" stroke="#ffffff" stroke-width="1" opacity="1" stroke-linejoin="round" class="highcharts-point highcharts-color-5" tabindex="-1" role="img" aria-label="16, 100." style="outline: none;"></path><path fill="#f107dc" d="M 268.35289630926894 48.51478216284711 A 129.2 129.2 0 0 1 314.82054379200116 39.80012463059646 L 315 169 A 0 0 0 0 0 315 169 Z" transform="translate(0,0)" stroke="#ffffff" stroke-width="1" opacity="1" stroke-linejoin="round" class="highcharts-point highcharts-color-6" tabindex="-1" role="img" aria-label="17, 100." style="outline: none;"></path></g><g class="highcharts-markers highcharts-series-0 highcharts-pie-series" data-z-index="0.1" opacity="1" transform="translate(10,47) scale(1 1)" clip-path="none" aria-hidden="true"></g></g><text x="325" text-anchor="middle" class="highcharts-title" data-z-index="4" style="color: rgb(51, 51, 51); font-size: 18px; fill: rgb(51, 51, 51);" y="24" aria-hidden="true">BEVEGELSE</text><text x="325" text-anchor="middle" class="highcharts-subtitle" data-z-index="4" style="color: rgb(102, 102, 102); fill: rgb(102, 102, 102);" y="46" aria-hidden="true"></text><text x="10" text-anchor="start" class="highcharts-caption" data-z-index="4" style="color: rgb(102, 102, 102); fill: rgb(102, 102, 102);" y="397" aria-hidden="true"></text><g class="highcharts-legend highcharts-no-tooltip" data-z-index="7" visibility="hidden" aria-hidden="true"><rect fill="none" class="highcharts-legend-box" rx="0" ry="0" x="0" y="0" width="8" height="8"></rect><g data-z-index="1"><g></g></g></g><text x="640" class="highcharts-credits" text-anchor="end" data-z-index="8" y="395" style="cursor: pointer; color: rgb(153, 153, 153); font-size: 9px; fill: rgb(153, 153, 153);" aria-label="Chart credits: Highcharts.com" aria-hidden="false">Highcharts.com</text></svg>