<?xml version="1.0" standalone="no"?><!DOCTYPE svg PUBLIC "-//W3C//DTD SVG 1.1//EN" "http://www.w3.org/Graphics/SVG/1.1/DTD/svg11.dtd"><svg xmlns:xlink="http://www.w3.org/1999/xlink" version="1.1" class="highcharts-root" style="font-family: Roboto; font-size: 12px;" xmlns="http://www.w3.org/2000/svg" width="650" height="400" viewBox="0 0 650 400" aria-label="Interactive chart" aria-hidden="false"><desc aria-hidden="true">Created with Highcharts 10.3.1</desc><defs aria-hidden="true"><clipPath id="highcharts-973v5kl-3463-"><rect x="0" y="0" width="630" height="338" fill="none"></rect></clipPath></defs><rect fill="#ffffff" class="highcharts-background" x="0" y="0" width="650" height="400" rx="0" ry="0" aria-hidden="true"></rect><rect fill="none" class="highcharts-plot-background" x="10" y="47" width="630" height="338" aria-hidden="true"></rect><g class="highcharts-pane-group" data-z-index="0" aria-hidden="true"></g><rect fill="none" class="highcharts-plot-border" data-z-index="1" x="10" y="47" width="630" height="338" aria-hidden="true"></rect><g class="highcharts-series-group" data-z-index="3" aria-hidden="false"><g class="highcharts-series highcharts-series-0 highcharts-pie-series" data-z-index="0.1" opacity="1" transform="translate(10,47) scale(1 1)" clip-path="none" aria-hidden="false"><path fill="#07b8fb" d="M 314.9736854220826 39.80000267978724 A 129.2 129.2 0 0 1 356.84146369528867 46.7628046958053 L 315 169 A 0 0 0 0 0 315 169 Z" transform="translate(0,0)" stroke="#ffffff" stroke-width="1" opacity="1" stroke-linejoin="round" class="highcharts-point highcharts-color-0" tabindex="-1" role="img" aria-label="1, 100." style="outline: none;"></path><path fill="#0a5bfc" d="M 356.9636799494899 46.80470727111958 A 129.2 129.2 0 0 1 394.29595083395446 66.9961168320584 L 315 169 A 0 0 0 0 0 315 169 Z" transform="translate(0,0)" stroke="#ffffff" stroke-width="1" opacity="1" stroke-linejoin="round" class="highcharts-point highcharts-color-1" tabindex="-1" role="img" aria-label="2, 100." style="outline: none;"></path><path fill="#0673d4" d="M 394.39791505214964 67.07546377161371 A 129.2 129.2 0 0 1 423.0709743690421 98.19530736648994 L 315 169 A 0 0 0 0 0 315 169 Z" transform="translate(0,0)" stroke="#ffffff" stroke-width="1" opacity="1" stroke-linejoin="round" class="highcharts-point highcharts-color-2" tabindex="-1" role="img" aria-label="3, 100." style="outline: none;"></path><path fill="#408bcd" d="M 423.1417250143922 98.30341372519052 A 129.2 129.2 0 0 1 440.21538687948635 137.16060791063117 L 315 169 A 0 0 0 0 0 315 169 Z" transform="translate(0,0)" stroke="#ffffff" stroke-width="1" opacity="1" stroke-linejoin="round" class="highcharts-point highcharts-color-3" tabindex="-1" role="img" aria-label="4, 100." style="outline: none;"></path><path fill="#8fbaea" d="M 440.2471636585809 137.28583919633616 A 129.2 129.2 0 0 1 443.76587293766835 179.58253120006 L 315 169 A 0 0 0 0 0 315 169 Z" transform="translate(0,0)" stroke="#ffffff" stroke-width="1" opacity="1" stroke-linejoin="round" class="highcharts-point highcharts-color-4" tabindex="-1" role="img" aria-label="5, 100." style="outline: none;"></path><path fill="#077ff0" d="M 443.755226025301 179.71129176027154 A 129.2 129.2 0 0 1 433.3887727422797 220.7372060375979 L 315 169 A 0 0 0 0 0 315 169 Z" transform="translate(0,0)" stroke="#ffffff" stroke-width="1" opacity="1" stroke-linejoin="round" class="highcharts-point highcharts-color-5" tabindex="-1" role="img" aria-label="6, 100." style="outline: none;"></path><path fill="#0e00f3" d="M 433.3369763504835 220.85556892200788 A 129.2 129.2 0 0 1 410.14835484004846 256.40383613567667 L 315 169 A 0 0 0 0 0 315 169 Z" transform="translate(0,0)" stroke="#ffffff" stroke-width="1" opacity="1" stroke-linejoin="round" class="highcharts-point highcharts-color-6" tabindex="-1" role="img" aria-label="7, 100." style="outline: none;"></path><path fill="#172d74" d="M 410.06090344430663 256.4989407727443 A 129.2 129.2 0 0 1 376.5782181230343 282.5815260189438 L 315 169 A 0 0 0 0 0 315 169 Z" transform="translate(0,0)" stroke="#ffffff" stroke-width="1" opacity="1" stroke-linejoin="round" class="highcharts-point highcharts-color-7" tabindex="-1" role="img" aria-label="8, 100." style="outline: none;"></path><path fill="#2a2299" d="M 376.4646058268391 282.64304743604555 A 129.2 129.2 0 0 1 336.45030012252846 296.40692534023987 L 315 169 A 0 0 0 0 0 315 169 Z" transform="translate(0,0)" stroke="#ffffff" stroke-width="1" opacity="1" stroke-linejoin="round" class="highcharts-point highcharts-color-8" tabindex="-1" role="img" aria-label="9, 100." style="outline: none;"></path><path fill="#0989b2" d="M 336.32288249327354 296.42831193332995 A 129.2 129.2 0 0 1 293.8800936225947 296.4621102705021 L 315 169 A 0 0 0 0 0 315 169 Z" transform="translate(0,0)" stroke="#ffffff" stroke-width="1" opacity="1" stroke-linejoin="round" class="highcharts-point highcharts-color-9" tabindex="-1" role="img" aria-label="10, 100." style="outline: none;"></path><path fill="#0789ff" d="M 293.7526420935202 296.44092663659484 A 129.2 129.2 0 0 1 253.602755923597 282.67945469530804 L 315 169 A 0 0 0 0 0 315 169 Z" transform="translate(0,0)" stroke="#ffffff" stroke-width="1" opacity="1" stroke-linejoin="round" class="highcharts-point highcharts-color-0" tabindex="-1" role="img" aria-label="11, 100." style="outline: none;"></path><path fill="#4584a2" d="M 253.48910718646775 282.6180006217419 A 129.2 129.2 0 0 1 219.99096980852323 256.5552635886333 L 315 169 A 0 0 0 0 0 315 169 Z" transform="translate(0,0)" stroke="#ffffff" stroke-width="1" opacity="1" stroke-linejoin="round" class="highcharts-point highcharts-color-1" tabindex="-1" role="img" aria-label="12, 100." style="outline: none;"></path><path fill="#0083a4" d="M 219.9034620640383 256.46021079664854 A 129.2 129.2 0 0 1 196.7457616561244 221.04397288553068 L 315 169 A 0 0 0 0 0 315 169 Z" transform="translate(0,0)" stroke="#ffffff" stroke-width="1" opacity="1" stroke-linejoin="round" class="highcharts-point highcharts-color-2" tabindex="-1" role="img" aria-label="13, 100." style="outline: none;"></path><path fill="#4a77a6" d="M 196.6937768190271 220.92569264491158 A 129.2 129.2 0 0 1 186.25114467172173 179.78759712160524 L 315 169 A 0 0 0 0 0 315 169 Z" transform="translate(0,0)" stroke="#ffffff" stroke-width="1" opacity="1" stroke-linejoin="round" class="highcharts-point highcharts-color-3" tabindex="-1" role="img" aria-label="14, 100." style="outline: none;"></path><path fill="#0960a3" d="M 186.24042145082035 179.65884289393702 A 129.2 129.2 0 0 1 189.7340628270702 137.36007294275794 L 315 169 A 0 0 0 0 0 315 169 Z" transform="translate(0,0)" stroke="#ffffff" stroke-width="1" opacity="1" stroke-linejoin="round" class="highcharts-point highcharts-color-4" tabindex="-1" role="img" aria-label="15, 100." style="outline: none;"></path><path fill="#0a3a75" d="M 189.76576538181746 137.2348228464249 A 129.2 129.2 0 0 1 206.74581701446323 98.47573562146201 L 315 169 A 0 0 0 0 0 315 169 Z" transform="translate(0,0)" stroke="#ffffff" stroke-width="1" opacity="1" stroke-linejoin="round" class="highcharts-point highcharts-color-5" tabindex="-1" role="img" aria-label="16, 100." style="outline: none;"></path><path fill="#415bb9" d="M 206.81639539417472 98.3675167186481 A 129.2 129.2 0 0 1 235.5416929528958 67.1225371281356 L 315 169 A 0 0 0 0 0 315 169 Z" transform="translate(0,0)" stroke="#ffffff" stroke-width="1" opacity="1" stroke-linejoin="round" class="highcharts-point highcharts-color-6" tabindex="-1" role="img" aria-label="17, 100." style="outline: none;"></path><path fill="#1ee2fa" d="M 235.6436101279383 67.04312977305872 A 129.2 129.2 0 0 1 272.96390794548296 46.82959865505816 L 315 169 A 0 0 0 0 0 315 169 Z" transform="translate(0,0)" stroke="#ffffff" stroke-width="1" opacity="1" stroke-linejoin="round" class="highcharts-point highcharts-color-7" tabindex="-1" role="img" aria-label="18, 100." style="outline: none;"></path><path fill="#1d95ed" d="M 273.0860993445105 46.78762365520522 A 129.2 129.2 0 0 1 314.82054379200116 39.80012463059646 L 315 169 A 0 0 0 0 0 315 169 Z" transform="translate(0,0)" stroke="#ffffff" stroke-width="1" opacity="1" stroke-linejoin="round" class="highcharts-point highcharts-color-8" tabindex="-1" role="img" aria-label="19, 100." style="outline: none;"></path></g><g class="highcharts-markers highcharts-series-0 highcharts-pie-series" data-z-index="0.1" opacity="1" transform="translate(10,47) scale(1 1)" clip-path="none" aria-hidden="true"></g></g><text x="325" text-anchor="middle" class="highcharts-title" data-z-index="4" style="color: rgb(51, 51, 51); font-size: 18px; fill: rgb(51, 51, 51);" y="24" aria-hidden="true">DIVERSE</text><text x="325" text-anchor="middle" class="highcharts-subtitle" data-z-index="4" style="color: rgb(102, 102, 102); fill: rgb(102, 102, 102);" y="46" aria-hidden="true"></text><text x="10" text-anchor="start" class="highcharts-caption" data-z-index="4" style="color: rgb(102, 102, 102); fill: rgb(102, 102, 102);" y="397" aria-hidden="true"></text><g class="highcharts-legend highcharts-no-tooltip" data-z-index="7" visibility="hidden" aria-hidden="true"><rect fill="none" class="highcharts-legend-box" rx="0" ry="0" x="0" y="0" width="8" height="8"></rect><g data-z-index="1"><g></g></g></g><text x="640" class="highcharts-credits" text-anchor="end" data-z-index="8" y="395" style="cursor: pointer; color: rgb(153, 153, 153); font-size: 9px; fill: rgb(153, 153, 153);" aria-label="Chart credits: Highcharts.com" aria-hidden="false">Highcharts.com</text></svg>